<svg xmlns="http://www.w3.org/2000/svg" version="1.1" width="2000" height="150">
	<!-- Main Road -->
	<rect x="0" y="50" height="100" width="2000" fill="#282B2A"></rect>
	<line x1="0" x2="2000" y1="55" y2="55" stroke="#FFFFFF" stroke-width="1"></line>
	<line x1="0" x2="2000" y1="145" y2="145" stroke="#FFFFFF" stroke-width="1"></line>
	<line x1="5" x2="2000" y1="100" y2="100" stroke="#E5E500" stroke-width="1" stroke-dasharray="10,10"></line>
	<!-- Cars -->
	<g id="car1" fill="none">
		<path d="M 30,90 C 30,90 25,65 50,70 L 50,70 60,60 L 60,60 90,60 L 90,60 100,70 C 100,70 112,73 112,80 L 112,90 30,90 Z" fill="#0099ff"/>
		<circle cx="50" cy="90" r="8" fill="#000000" />
		<circle cx="50" cy="90" r="3" fill="#cccccc" />
		<circle cx="95" cy="90" r="8" fill="#000000" />
		<circle cx="95" cy="90" r="3" fill="#cccccc" />
		<circle cx="40" cy="80" r="3" fill="#ffffff" />
		<path d="M 60,70 C 60,70 70,60 75,60 L 75,60 75,70 L 75,70 65,70" fill="#ffffff"/>
	</g>
</svg>